<svg width="24" height="24" viewBox="0 0 24 24" fill="none" xmlns="http://www.w3.org/2000/svg">
<path fill-rule="evenodd" clip-rule="evenodd" d="M13.4361 5.41699C12.5409 4.92898 11.4592 4.92898 10.5641 5.41699L5.76906 8.03099C4.80535 8.55687 4.20585 9.56715 4.20605 10.665V15.603C4.20585 16.7009 4.80535 17.7111 5.76906 18.237L10.5641 20.851C11.4592 21.339 12.5409 21.339 13.4361 20.851L18.2301 18.237C19.1942 17.7114 19.7941 16.7011 19.7941 15.603V10.664C19.7941 9.56593 19.1942 8.5556 18.2301 8.02999L13.4361 5.41699ZM12.0001 10.134C11.7161 10.134 11.5261 10.474 11.1461 11.157L11.0481 11.333C10.9401 11.527 10.8861 11.623 10.8021 11.687C10.7171 11.751 10.6121 11.775 10.4021 11.822L10.2121 11.866C9.47406 12.033 9.10506 12.116 9.01706 12.398C8.92906 12.68 9.18106 12.975 9.68406 13.563L9.81406 13.715C9.95706 13.882 10.0291 13.965 10.0611 14.069C10.0931 14.173 10.0821 14.284 10.0611 14.507L10.0411 14.71C9.96506 15.495 9.92706 15.888 10.1561 16.062C10.3861 16.236 10.7321 16.077 11.4231 15.759L11.6011 15.677C11.7981 15.587 11.8961 15.542 12.0001 15.542C12.1041 15.542 12.2021 15.587 12.3991 15.677L12.5771 15.759C13.2681 16.078 13.6141 16.236 13.8441 16.062C14.0741 15.888 14.0351 15.495 13.9591 14.71L13.9391 14.507C13.9181 14.284 13.9071 14.173 13.9391 14.069C13.9711 13.965 14.0431 13.882 14.1861 13.715L14.3161 13.563C14.8191 12.975 15.0711 12.681 14.9831 12.398C14.8951 12.116 14.5261 12.033 13.7881 11.866L13.5981 11.822C13.3881 11.775 13.2831 11.752 13.1981 11.687C13.1141 11.623 13.0601 11.527 12.9521 11.333L12.8541 11.157C12.4741 10.475 12.2841 10.134 12.0001 10.134ZM12.0001 10.134C11.7161 10.134 11.5261 10.474 11.1461 11.157L11.0481 11.333C10.9401 11.527 10.8861 11.623 10.8021 11.687C10.7171 11.751 10.6121 11.775 10.4021 11.822L10.2121 11.866C9.47406 12.033 9.10506 12.116 9.01706 12.398C8.92906 12.68 9.18106 12.975 9.68406 13.563L9.81406 13.715C9.95706 13.882 10.0291 13.965 10.0611 14.069C10.0931 14.173 10.0821 14.284 10.0611 14.507L10.0411 14.71C9.96506 15.495 9.92706 15.888 10.1561 16.062C10.3861 16.236 10.7321 16.077 11.4231 15.759L11.6011 15.677C11.7981 15.587 11.8961 15.542 12.0001 15.542C12.1041 15.542 12.2021 15.587 12.3991 15.677L12.5771 15.759C13.2681 16.078 13.6141 16.236 13.8441 16.062C14.0741 15.888 14.0351 15.495 13.9591 14.71L13.9391 14.507C13.9181 14.284 13.9071 14.173 13.9391 14.069C13.9711 13.965 14.0431 13.882 14.1861 13.715L14.3161 13.563C14.8191 12.975 15.0711 12.681 14.9831 12.398C14.8951 12.116 14.5261 12.033 13.7881 11.866L13.5981 11.822C13.3881 11.775 13.2831 11.752 13.1981 11.687C13.1141 11.623 13.0601 11.527 12.9521 11.333L12.8541 11.157C12.4741 10.475 12.2841 10.134 12.0001 10.134Z" fill="#3864BA"/>
<path d="M11 2H13C14.886 2 15.828 2 16.414 2.586C17 3.172 17 4.114 17 6V6.018L14.154 4.466C12.8113 3.73398 11.1887 3.73398 9.846 4.466L7 6.018V6C7 4.114 7 3.172 7.586 2.586C8.172 2 9.114 2 11 2Z" fill="#3864BA"/>
</svg>
