<svg width="24" height="24" viewBox="0 0 24 24" fill="none" xmlns="http://www.w3.org/2000/svg">
<path d="M21.9989 8.16202V8.23502C21.9989 9.09497 21.9989 9.52595 21.7919 9.87793C21.5849 10.2299 21.208 10.4389 20.456 10.8579L19.663 11.2979C20.209 9.44995 20.392 7.46406 20.459 5.76615L20.469 5.54516L20.471 5.49316C21.122 5.71915 21.488 5.88814 21.7159 6.20413C21.9989 6.5971 21.9989 7.11908 21.9989 8.16202Z" fill="#00A63E"/>
<path d="M2 8.16202V8.23502C2 9.09497 2 9.52595 2.20699 9.87793C2.41398 10.2299 2.79096 10.4389 3.54292 10.8579L4.33687 11.2979C3.7899 9.44995 3.60691 7.46406 3.53992 5.76615L3.52992 5.54516L3.52892 5.49316C2.87695 5.71915 2.51097 5.88814 2.28298 6.20413C2 6.5971 2 7.12008 2 8.16202Z" fill="#00A63E"/>
<path fill-rule="evenodd" clip-rule="evenodd" d="M11.9737 2C13.7577 2 15.2267 2.157 16.3507 2.347C17.4897 2.539 18.0587 2.635 18.5347 3.221C19.0107 3.807 18.9847 4.44 18.9347 5.706C18.7627 10.055 17.8247 15.486 12.7237 15.966V19.5H14.1537C14.6302 19.5003 15.0403 19.8367 15.1337 20.304L15.3237 21.25H17.9737C18.3879 21.25 18.7237 21.5858 18.7237 22C18.7237 22.4142 18.3879 22.75 17.9737 22.75H5.97367C5.55946 22.75 5.22367 22.4142 5.22367 22C5.22367 21.5858 5.55946 21.25 5.97367 21.25H8.62367L8.81367 20.304C8.90707 19.8367 9.31717 19.5003 9.79367 19.5H11.2237V15.966C6.12367 15.486 5.18567 10.054 5.01367 5.706C4.96267 4.44 4.93767 3.806 5.41367 3.221C5.88867 2.635 6.45767 2.539 7.59667 2.347C9.04351 2.11 10.5076 1.99393 11.9737 2ZM12.9257 6.199L12.8277 6.023C12.4477 5.34 12.2577 5 11.9737 5C11.6897 5 11.4997 5.34 11.1197 6.023L11.0217 6.199C10.9137 6.393 10.8597 6.489 10.7757 6.553C10.6907 6.617 10.5857 6.641 10.3757 6.688L10.1857 6.732C9.44767 6.899 9.07867 6.982 8.99067 7.264C8.90267 7.546 9.15467 7.841 9.65767 8.429L9.78767 8.581C9.93067 8.748 10.0027 8.831 10.0347 8.935C10.0667 9.039 10.0557 9.15 10.0347 9.373L10.0147 9.576C9.93867 10.361 9.90067 10.754 10.1297 10.928C10.3597 11.102 10.7057 10.943 11.3967 10.625L11.5747 10.543C11.7717 10.453 11.8697 10.408 11.9737 10.408C12.0777 10.408 12.1757 10.453 12.3727 10.543L12.5507 10.625C13.2417 10.944 13.5877 11.102 13.8177 10.928C14.0477 10.754 14.0087 10.361 13.9327 9.576L13.9127 9.373C13.8917 9.15 13.8807 9.039 13.9127 8.935C13.9447 8.831 14.0167 8.748 14.1597 8.581L14.2897 8.429C14.7927 7.841 15.0447 7.547 14.9567 7.264C14.8687 6.982 14.4997 6.899 13.7617 6.732L13.5717 6.688C13.3617 6.641 13.2567 6.618 13.1717 6.553C13.0877 6.489 13.0337 6.393 12.9257 6.199ZM12.9257 6.199L12.8277 6.023C12.4477 5.34 12.2577 5 11.9737 5C11.6897 5 11.4997 5.34 11.1197 6.023L11.0217 6.199C10.9137 6.393 10.8597 6.489 10.7757 6.553C10.6907 6.617 10.5857 6.641 10.3757 6.688L10.1857 6.732C9.44767 6.899 9.07867 6.982 8.99067 7.264C8.90267 7.546 9.15467 7.841 9.65767 8.429L9.78767 8.581C9.93067 8.748 10.0027 8.831 10.0347 8.935C10.0667 9.039 10.0557 9.15 10.0347 9.373L10.0147 9.576C9.93867 10.361 9.90067 10.754 10.1297 10.928C10.3597 11.102 10.7057 10.943 11.3967 10.625L11.5747 10.543C11.7717 10.453 11.8697 10.408 11.9737 10.408C12.0777 10.408 12.1757 10.453 12.3727 10.543L12.5507 10.625C13.2417 10.944 13.5877 11.102 13.8177 10.928C14.0477 10.754 14.0087 10.361 13.9327 9.576L13.9127 9.373C13.8917 9.15 13.8807 9.039 13.9127 8.935C13.9447 8.831 14.0167 8.748 14.1597 8.581L14.2897 8.429C14.7927 7.841 15.0447 7.547 14.9567 7.264C14.8687 6.982 14.4997 6.899 13.7617 6.732L13.5717 6.688C13.3617 6.641 13.2567 6.618 13.1717 6.553C13.0877 6.489 13.0337 6.393 12.9257 6.199Z" fill="#00A63E"/>
</svg>
