<svg width="20" height="20" viewBox="0 0 20 20" fill="none" xmlns="http://www.w3.org/2000/svg">
<path fill-rule="evenodd" clip-rule="evenodd" d="M0 4.634C0 2.07471 2.07471 0 4.634 0C7.19329 0 9.268 2.07471 9.268 4.634C9.268 7.19329 7.19329 9.268 4.634 9.268C2.07471 9.268 0 7.19329 0 4.634ZM10.732 15.366C10.732 12.8067 12.8067 10.732 15.366 10.732C17.9253 10.732 20 12.8067 20 15.366C20 17.9253 17.9253 20 15.366 20C12.8067 20 10.732 17.9253 10.732 15.366ZM10.732 15.366C10.732 12.8067 12.8067 10.732 15.366 10.732C17.9253 10.732 20 12.8067 20 15.366C20 17.9253 17.9253 20 15.366 20C12.8067 20 10.732 17.9253 10.732 15.366Z" fill="#6B7280"/>
<path d="M0 15.5015C0 13.3805 0 12.3195 0.659 11.6605C1.318 11.0015 2.379 11.0015 4.5 11.0015C6.621 11.0015 7.682 11.0015 8.341 11.6605C9 12.3195 9 13.3805 9 15.5015C9 17.6225 9 18.6835 8.341 19.3425C7.682 20.0015 6.621 20.0015 4.5 20.0015C2.379 20.0015 1.318 20.0015 0.659 19.3425C0 18.6835 0 17.6225 0 15.5015Z" fill="#6B7280"/>
<path d="M11 4.50146C11 2.38046 11 1.31946 11.659 0.660465C12.318 0.00146484 13.379 0.00146484 15.5 0.00146484C17.621 0.00146484 18.682 0.00146484 19.341 0.660465C20 1.31946 20 2.38046 20 4.50146C20 6.62247 20 7.68346 19.341 8.34246C18.682 9.00146 17.621 9.00146 15.5 9.00146C13.379 9.00146 12.318 9.00146 11.659 8.34246C11 7.68346 11 6.62247 11 4.50146Z" fill="#6B7280"/>
</svg>
