<svg width="90" height="75" viewBox="0 0 90 75" fill="none" xmlns="http://www.w3.org/2000/svg">
<path d="M44.0361 36.9665C43.2569 33.1214 42.7362 28.4606 43.0639 24.4843C43.3079 21.524 43.8322 16.4663 46.2209 14.7549L45.7949 14.0267C46.5996 12.3845 49.8257 8.26624 51.6827 8.56482L51.9923 7.47609C53.6017 6.04144 58.6302 4.03147 60.7859 4.19533C61.82 4.78521 64.4307 4.88717 63.5059 7.08648C57.3012 16.9433 51.7993 27.3391 45.2341 36.9083C44.8627 36.9775 44.393 37.0576 44.0361 36.9665Z" fill="url(#paint0_linear_1_106)"/>
<path d="M33.1123 39.8795C36.8847 46.1607 40.7808 52.4236 44.4002 58.814C45.3214 59.6187 44.7534 60.3178 43.672 60.6346L43.9887 61.5231C41.4399 66.639 36.262 72.5014 30.5635 67.553C27.4866 63.249 25.1307 57.9947 22.5527 53.3521C22.5819 52.0559 23.3465 50.7923 24.8504 49.558C26.8094 45.7638 29.3509 42.3119 32.4751 39.1986L33.1123 39.8795Z" fill="url(#paint1_linear_1_106)"/>
<path d="M20.7321 19.4886L20.459 20.519C16.0458 22.5363 12.7505 24.7866 10.0087 28.7628L9.08015 28.5917C6.48758 23.7961 3.47627 19.0771 1.12038 14.1578C-0.113998 11.5834 -0.944199 10.9243 2.05619 9.73366C7.88218 7.42146 14.2325 10.0723 17.9721 14.7877C19.1591 16.2843 19.7745 17.9774 20.7321 19.4922V19.4886Z" fill="url(#paint2_linear_1_106)"/>
<path d="M27.6505 31.1405C28.0765 32.1856 27.5194 32.9648 25.9792 33.4855C23.4558 34.1883 21.1217 34.9238 19.9529 37.5382L17.6407 42.3483L16.7304 42.4284C14.1924 37.8113 11.5926 33.2306 9.08378 28.5917C10.8607 27.2226 11.5343 25.3036 13.2785 23.8653C15.4195 22.103 18.409 21.0179 20.7358 19.4886C23.1645 23.3155 25.3274 27.3318 27.6541 31.1405H27.6505Z" fill="url(#paint3_linear_1_106)"/>
<path d="M27.6505 31.1405C29.3983 33.9989 31.3427 36.9338 33.1123 39.8795C32.304 39.7011 32.3404 40.3274 32.0273 40.7789C29.726 44.1107 26.7584 45.924 25.4803 49.9075L22.5527 53.3521C20.5464 49.7473 18.7112 46.0369 16.7267 42.4284C18.7149 39.4389 19.0499 35.5392 22.5527 33.8715C24.3588 33.0121 26.5253 33.1651 27.6505 31.1405Z" fill="url(#paint4_linear_1_106)"/>
<path d="M63.6988 58.8141C60.5892 64.2578 59.3366 69.3628 53.3832 72.7127C45.3833 77.2133 35.7814 74.8538 30.5635 67.5531C37.9552 70.8593 40.5915 66.2386 43.854 60.8168L44.2436 60.0849C49.9203 59.5314 55.4805 58.6248 61.0006 57.4341C62.0894 57.3394 63.5459 57.5943 63.6952 58.8177L63.6988 58.8141Z" fill="url(#paint5_linear_1_106)"/>
<path d="M63.6952 58.814C64.6929 57.0043 74.7318 38.7763 75.7149 36.9666H75.7113C74.2584 33.3326 72.8565 31.5229 69.4265 29.3491C67.9627 28.4206 65.199 26.7274 63.6952 27.1352C58.3862 35.8159 44.2181 60.0885 44.2181 60.0885L63.6952 58.814Z" fill="url(#paint6_linear_1_106)"/>
<path d="M81.1768 27.1352C80.4267 27.6523 79.6657 27.2954 78.8901 26.0647C77.1787 22.7767 74.3895 21.6005 71.0833 20.2933C69.5976 19.7508 68.9568 18.9971 69.1607 18.0321C72.9294 12.3554 76.5269 7.8949 84.2391 8.96178C85.3752 9.11835 88.8671 10.6149 89.1293 11.7364C89.4315 13.0108 82.3274 25.0051 81.1768 27.1389V27.1352Z" fill="url(#paint7_linear_1_106)"/>
<path d="M81.1768 27.1352C79.3962 30.4306 77.4991 33.6822 75.7149 36.9666C73.9343 36.5515 74.1273 34.9275 73.3335 33.704C71.1561 30.3541 66.9504 29.0833 63.6988 27.1352C65.5413 24.1239 67.2053 20.9779 69.1607 18.0321C71.2835 20.3006 74.8519 20.5482 77.1496 22.6055C78.5405 23.8508 79.2979 26.1303 81.1768 27.1352Z" fill="url(#paint8_linear_1_106)"/>
<path d="M60.7858 4.19536C57.8691 5.52078 54.2898 6.67141 51.6827 8.56486C48.0596 9.27126 44.3419 9.80653 40.5332 10.1634L34.1865 12.2389C31.9508 13.171 30.1338 13.0399 28.7428 11.842C28.2003 10.9317 25.1052 7.18847 25.6259 6.38011C26.0337 5.74653 30.1046 3.46711 31.0477 3.04108C40.7553 -1.34298 51.639 -1.01162 60.7858 4.19536Z" fill="url(#paint9_linear_1_106)"/>
<path d="M51.6827 8.56486C49.964 9.81016 47.2149 12.8579 46.2208 14.7549L45.1685 15.7126C41.6255 16.9324 38.3339 18.7275 35.2934 21.1053L34.2047 20.9451C32.3986 17.9155 30.5452 14.8715 28.7428 11.842C32.7482 12.9489 36.6553 10.1378 40.6788 9.39503C42.6852 9.02362 44.4949 9.1365 46.3664 8.89254C48.238 8.64857 50.0987 7.1229 51.6863 8.56847L51.6827 8.56486Z" fill="url(#paint10_linear_1_106)"/>
<path d="M46.2208 14.7549C44.6842 17.6861 44.1562 22.7329 44.0361 26.0428C43.9086 29.593 44.6696 33.5438 44.0361 36.9665C42.9109 36.6898 35.4209 22.9842 34.2047 20.9451C37.9879 18.5164 41.6219 15.4759 46.2208 14.7549Z" fill="url(#paint11_linear_1_106)"/>
<defs>
<linearGradient id="paint0_linear_1_106" x1="60.568" y1="6.41082" x2="44.4909" y2="25.7594" gradientUnits="userSpaceOnUse">
<stop stop-color="#7D39EB"/>
<stop offset="0.432692" stop-color="#612CB7"/>
<stop offset="1" stop-color="#472085"/>
</linearGradient>
<linearGradient id="paint1_linear_1_106" x1="6.37218" y1="14.3829" x2="35.5021" y2="60.9908" gradientUnits="userSpaceOnUse">
<stop stop-color="#C6FF33"/>
<stop offset="0.5" stop-color="#9ECC29"/>
<stop offset="1" stop-color="#77991F"/>
</linearGradient>
<linearGradient id="paint2_linear_1_106" x1="6.37218" y1="14.3829" x2="35.5021" y2="60.9908" gradientUnits="userSpaceOnUse">
<stop stop-color="#C6FF33"/>
<stop offset="0.5" stop-color="#9ECC29"/>
<stop offset="1" stop-color="#77991F"/>
</linearGradient>
<linearGradient id="paint3_linear_1_106" x1="6.37218" y1="14.3829" x2="35.5021" y2="60.9908" gradientUnits="userSpaceOnUse">
<stop stop-color="#C6FF33"/>
<stop offset="0.5" stop-color="#9ECC29"/>
<stop offset="1" stop-color="#77991F"/>
</linearGradient>
<linearGradient id="paint4_linear_1_106" x1="6.37218" y1="14.3829" x2="35.5021" y2="60.9908" gradientUnits="userSpaceOnUse">
<stop stop-color="#C6FF33"/>
<stop offset="0.5" stop-color="#9ECC29"/>
<stop offset="1" stop-color="#77991F"/>
</linearGradient>
<linearGradient id="paint5_linear_1_106" x1="80.2894" y1="13.2906" x2="51.3416" y2="62.0833" gradientUnits="userSpaceOnUse">
<stop stop-color="#7D39EB"/>
<stop offset="0.432692" stop-color="#612CB7"/>
<stop offset="1" stop-color="#472085"/>
</linearGradient>
<linearGradient id="paint6_linear_1_106" x1="80.2894" y1="13.2906" x2="51.3416" y2="62.0833" gradientUnits="userSpaceOnUse">
<stop stop-color="#7D39EB"/>
<stop offset="0.432692" stop-color="#612CB7"/>
<stop offset="1" stop-color="#472085"/>
</linearGradient>
<linearGradient id="paint7_linear_1_106" x1="80.2894" y1="13.2906" x2="51.3416" y2="62.0833" gradientUnits="userSpaceOnUse">
<stop stop-color="#7D39EB"/>
<stop offset="0.432692" stop-color="#612CB7"/>
<stop offset="1" stop-color="#472085"/>
</linearGradient>
<linearGradient id="paint8_linear_1_106" x1="80.2894" y1="13.2906" x2="51.3416" y2="62.0833" gradientUnits="userSpaceOnUse">
<stop stop-color="#7D39EB"/>
<stop offset="0.432692" stop-color="#612CB7"/>
<stop offset="1" stop-color="#472085"/>
</linearGradient>
<linearGradient id="paint9_linear_1_106" x1="35.5021" y1="1.27444" x2="34.2253" y2="29.2027" gradientUnits="userSpaceOnUse">
<stop stop-color="#C6FF33"/>
<stop offset="0.5" stop-color="#9ECC29"/>
<stop offset="1" stop-color="#77991F"/>
</linearGradient>
<linearGradient id="paint10_linear_1_106" x1="35.5021" y1="1.27444" x2="34.2253" y2="29.2027" gradientUnits="userSpaceOnUse">
<stop stop-color="#C6FF33"/>
<stop offset="0.5" stop-color="#9ECC29"/>
<stop offset="1" stop-color="#77991F"/>
</linearGradient>
<linearGradient id="paint11_linear_1_106" x1="35.5021" y1="1.27444" x2="34.2253" y2="29.2027" gradientUnits="userSpaceOnUse">
<stop stop-color="#C6FF33"/>
<stop offset="0.5" stop-color="#9ECC29"/>
<stop offset="1" stop-color="#77991F"/>
</linearGradient>
</defs>
</svg>
