<svg width="22" height="23" viewBox="0 0 22 23" fill="none" xmlns="http://www.w3.org/2000/svg">
<path fill-rule="evenodd" clip-rule="evenodd" d="M11.6522 22.2837L11.6401 22.2859L11.562 22.3244L11.54 22.3288L11.5246 22.3244L11.4465 22.2859C11.4348 22.2823 11.426 22.2841 11.4201 22.2914L11.4157 22.3024L11.397 22.7732L11.4025 22.7952L11.4135 22.8095L11.5279 22.8909L11.5444 22.8953L11.5576 22.8909L11.672 22.8095L11.6852 22.7919L11.6896 22.7732L11.6709 22.3035C11.668 22.2918 11.6617 22.2852 11.6522 22.2837ZM11.9437 22.1594L11.9294 22.1616L11.7259 22.2639L11.7149 22.2749L11.7116 22.287L11.7314 22.76L11.7369 22.7732L11.7457 22.7809L11.9668 22.8832C11.9807 22.8869 11.9914 22.884 11.9987 22.8744L12.0031 22.859L11.9657 22.1836C11.962 22.1704 11.9547 22.1624 11.9437 22.1594ZM11.1572 22.1616C11.1523 22.1587 11.1466 22.1577 11.141 22.159C11.1355 22.1602 11.1306 22.1635 11.1275 22.1682L11.1209 22.1836L11.0835 22.859C11.0842 22.8722 11.0905 22.881 11.1022 22.8854L11.1187 22.8832L11.3398 22.7809L11.3508 22.7721L11.3552 22.76L11.3739 22.287L11.3706 22.2738L11.3596 22.2628L11.1572 22.1616Z" fill="#33D5D5"/>
<path fill-rule="evenodd" clip-rule="evenodd" d="M10.45 1.67912e-07C11.5314 -0.000281413 12.5832 0.353594 13.4445 1.00753C14.3058 1.66146 14.9293 2.57946 15.2196 3.6212L15.2768 3.8467L17.3338 3.333C17.4841 3.29558 17.6407 3.29034 17.7932 3.31763C17.9457 3.34491 18.0908 3.40411 18.2188 3.49135C18.3469 3.57858 18.455 3.69188 18.5363 3.82383C18.6175 3.95577 18.6699 4.10338 18.6901 4.257L18.7 4.4V6.391C19.3205 6.98531 19.8287 7.68659 20.2004 8.4612L20.3522 8.8H20.9C21.1694 8.80003 21.4295 8.89895 21.6308 9.07799C21.8321 9.25702 21.9608 9.50372 21.9923 9.7713L22 9.9V13.2C22 13.3811 21.9554 13.5593 21.87 13.719C21.7846 13.8786 21.6611 14.0147 21.5105 14.1152L21.3917 14.1834L20.1069 14.8269C19.5818 15.8451 18.8198 16.7222 17.8849 17.3844L17.6 17.5758V18.7C17.6 18.9694 17.501 19.2295 17.322 19.4308C17.143 19.6321 16.8963 19.7608 16.6287 19.7923L16.5 19.8H13.2C12.9306 19.8 12.6705 19.701 12.4692 19.522C12.2679 19.343 12.1392 19.0963 12.1077 18.8287L12.1 18.7H11C11 18.9694 10.901 19.2295 10.722 19.4308C10.543 19.6321 10.2963 19.7608 10.0287 19.7923L9.9 19.8H6.6C6.33057 19.8 6.07053 19.701 5.86919 19.522C5.66785 19.343 5.53922 19.0963 5.5077 18.8287L5.5 18.7V17.5758C4.70502 17.0681 4.01835 16.4082 3.47955 15.6339C2.94074 14.8597 2.56046 13.9865 2.3606 13.0647C1.7118 12.8719 1.13796 12.4843 0.716879 11.9544C0.295795 11.4245 0.047831 10.778 0.00660005 10.1024L0 9.9V9.35C0.000310978 9.06963 0.107667 8.79996 0.300133 8.59609C0.492599 8.39222 0.755648 8.26954 1.03553 8.25311C1.31542 8.23668 1.59102 8.32774 1.80602 8.50769C2.02101 8.68764 2.15919 8.94289 2.1923 9.2213L2.2 9.35V9.9C2.20147 10.0643 2.23447 10.2164 2.299 10.3565C2.46663 9.36609 2.84107 8.42212 3.39791 7.5861C3.95475 6.75008 4.6815 6.04077 5.5308 5.5044C5.45275 4.81193 5.52179 4.11079 5.7334 3.44684C5.94502 2.7829 6.29443 2.17112 6.75878 1.65152C7.22314 1.13193 7.79197 0.716233 8.42805 0.431635C9.06414 0.147038 9.75315 -4.8313e-05 10.45 1.67912e-07ZM15.4 8.8C15.1083 8.8 14.8285 8.91589 14.6222 9.12218C14.4159 9.32847 14.3 9.60826 14.3 9.9C14.3 10.1917 14.4159 10.4715 14.6222 10.6778C14.8285 10.8841 15.1083 11 15.4 11C15.6917 11 15.9715 10.8841 16.1778 10.6778C16.3841 10.4715 16.5 10.1917 16.5 9.9C16.5 9.60826 16.3841 9.32847 16.1778 9.12218C15.9715 8.91589 15.6917 8.8 15.4 8.8ZM10.45 2.2C9.78372 2.2 9.1401 2.44189 8.63875 2.88072C8.1374 3.31956 7.81242 3.92549 7.7242 4.5859C8.25723 4.46192 8.80274 4.39954 9.35 4.4H13.0647L13.1417 4.3813C13.0113 3.76415 12.6726 3.21061 12.1825 2.81347C11.6925 2.41633 11.0808 2.19974 10.45 2.2Z" fill="#33D5D5"/>
</svg>
