<svg width="21" height="20" viewBox="0 0 21 20" fill="none" xmlns="http://www.w3.org/2000/svg">
<path d="M12.82 2C12.41 0.84 11.31 0 10 0C8.69 0 7.6 0.84 7.18 2H0V4H2.56L0.0699999 10.65C0.0299999 10.76 0.00999999 10.88 0.00999999 11C0.00999999 13.21 1.8 15 4.01 15C6.22 15 8.01 13.21 8.01 11C8.01 10.88 7.99 10.76 7.95 10.65L5.46 4H7.2C7.5 4.85 8.17 5.51 9.02 5.82V18H0V20H20V18H11V5.82C11.85 5.52 12.51 4.85 12.82 4H14.56L12.07 10.65C12.03 10.76 12.01 10.88 12.01 11C12.01 13.21 13.8 15 16.01 15C18.22 15 20.01 13.21 20.01 11C20.01 10.88 19.99 10.76 19.95 10.65L17.46 4H20.02V2H12.84H12.82ZM2.07 11L4 5.85L5.93 11H2.07ZM14.07 11L16 5.85L17.93 11H14.07ZM10 4C9.45 4 9 3.55 9 3C9 2.45 9.45 2 10 2C10.55 2 11 2.45 11 3C11 3.55 10.55 4 10 4Z" fill="#557DFF"/>
</svg>
