<svg width="12" height="13" viewBox="0 0 12 13" fill="none" xmlns="http://www.w3.org/2000/svg">
<path d="M6.55467 12.8316C8.63867 12.4143 11.3333 10.915 11.3333 7.03828C11.3333 3.51094 8.75134 1.16161 6.89467 0.0822754C6.48201 -0.157725 6.00001 0.157609 6.00001 0.634276V1.85294C6.00001 2.81428 5.596 4.56895 4.47334 5.29895C3.9 5.67161 3.28 5.11361 3.21067 4.43361L3.15334 3.87495C3.08667 3.22561 2.42534 2.83161 1.90667 3.22761C0.974001 3.93761 0 5.18428 0 7.03761C0 11.7783 3.526 12.9643 5.28867 12.9643C5.39178 12.9643 5.49934 12.961 5.61134 12.9543C4.74067 12.8803 3.33334 12.3403 3.33334 10.5936C3.33334 9.22695 4.33 8.30362 5.08734 7.85362C5.29134 7.73362 5.52934 7.89028 5.52934 8.12695V8.52028C5.52934 8.82028 5.646 9.29028 5.92267 9.61162C6.23601 9.97562 6.69534 9.59428 6.73201 9.11562C6.74401 8.96495 6.89601 8.86895 7.02667 8.94495C7.45401 9.19495 8.00001 9.72828 8.00001 10.5936C8.00001 11.959 7.24734 12.587 6.55467 12.8316Z" fill="#FF6900"/>
</svg>
