<svg width="20" height="20" viewBox="0 0 20 20" fill="none" xmlns="http://www.w3.org/2000/svg">
<path d="M15.5091 20H17.0182C17.7818 20 18.4091 19.4091 18.5 18.6636L20 3.68182H15.4545V0H13.6636V3.68182H9.14546L9.41818 5.80909C10.9727 6.23636 12.4273 7.00909 13.3 7.86364C14.6091 9.15455 15.5091 10.4909 15.5091 12.6727V20ZM0 19.0909V18.1818H13.6636V19.0909C13.6636 19.5818 13.2545 20 12.7273 20H0.909091C0.409091 20 0 19.5818 0 19.0909ZM13.6636 12.7273C13.6636 5.45455 0 5.45455 0 12.7273H13.6636ZM0 14.5455H13.6364V16.3636H0V14.5455Z" fill="#4219B5"/>
</svg>
