<svg width="20" height="21" viewBox="0 0 20 21" fill="none" xmlns="http://www.w3.org/2000/svg">
<path fill-rule="evenodd" clip-rule="evenodd" d="M0 10V6C0 3.172 0 1.757 0.879 0.879C1.757 0 3.172 0 6 0H14C16.828 0 18.243 0 19.121 0.879C20 1.757 20 3.172 20 6V10C20 12.828 20 14.243 19.121 15.121C18.645 15.598 18.011 15.816 17.081 15.916C17.02 15.8347 16.9549 15.7566 16.886 15.682C16.7543 15.5405 16.6189 15.4024 16.48 15.268L14.987 13.796L14.436 13.238C14.0649 11.0779 12.1918 9.49917 10 9.49917C7.80825 9.49917 5.93514 11.0779 5.564 13.238L5.014 13.796L3.52 15.268C3.377 15.409 3.23 15.554 3.114 15.682C3.064 15.737 2.994 15.816 2.92 15.916C1.989 15.816 1.355 15.598 0.879 15.121C0 14.243 0 12.828 0 10ZM7 3.25C6.58579 3.25 6.25 3.58579 6.25 4C6.25 4.41421 6.58579 4.75 7 4.75H13C13.4142 4.75 13.75 4.41421 13.75 4C13.75 3.58579 13.4142 3.25 13 3.25H7ZM4.25 7.5C4.25 7.08579 4.58579 6.75 5 6.75H15C15.4142 6.75 15.75 7.08579 15.75 7.5C15.75 7.91421 15.4142 8.25 15 8.25H5C4.58579 8.25 4.25 7.91421 4.25 7.5ZM4.25 7.5C4.25 7.08579 4.58579 6.75 5 6.75H15C15.4142 6.75 15.75 7.08579 15.75 7.5C15.75 7.91421 15.4142 8.25 15 8.25H5C4.58579 8.25 4.25 7.91421 4.25 7.5Z" fill="#7D39EB"/>
<path d="M13 14C13 15.6569 11.6569 17 10 17C8.34315 17 7 15.6569 7 14C7 12.3431 8.34315 11 10 11C11.6569 11 13 12.3431 13 14Z" fill="#7D39EB"/>
<path d="M6.96431 13.9346L6.96331 14.0181C6.96627 15.677 8.30746 17.0227 9.96641 17.0312C11.6254 17.0397 12.9803 15.7079 13.0003 14.049C13.0203 12.3902 11.6978 11.0261 10.0391 10.9946C8.38046 10.9632 7.00725 12.2761 6.96431 13.9346Z" fill="#7D39EB"/>
<path d="M5.6311 15.2758L4.54441 16.3474C4.2174 16.6694 4.05439 16.8304 3.99805 16.9652C3.86559 17.2648 3.97795 17.6161 4.25966 17.7833C4.38241 17.8547 4.60378 17.8768 5.04751 17.9221C5.29705 17.9473 5.42282 17.9593 5.52747 17.9976C5.75976 18.0818 5.94358 18.2634 6.03056 18.4946C6.06981 18.5983 6.08289 18.721 6.10804 18.9676C6.15332 19.4052 6.17646 19.6236 6.24891 19.7453C6.42312 20.025 6.77601 20.1346 7.07802 20.0029C7.21586 19.9466 7.37987 19.7866 7.70488 19.4646L8.79157 18.388C7.26807 17.971 6.071 16.7918 5.6311 15.2748" fill="#7D39EB"/>
<path d="M11.1722 18.388L12.2589 19.4646C12.5849 19.7866 12.7479 19.9476 12.8858 20.0029C13.2007 20.1297 13.5499 20.021 13.7149 19.7453C13.7873 19.6246 13.8105 19.4052 13.8558 18.9686C13.8809 18.721 13.894 18.5983 13.9332 18.4956C14.02 18.264 14.2038 18.082 14.4363 17.9976C14.542 17.9593 14.6668 17.9473 14.9163 17.9221C15.359 17.8768 15.5814 17.8547 15.7041 17.7833C15.9853 17.6162 16.0976 17.2655 15.9658 16.9662C15.9094 16.8294 15.7464 16.6684 15.4204 16.3474L14.3337 15.2748C13.8936 16.7921 12.6961 17.9713 11.1722 18.388Z" fill="#7D39EB"/>
</svg>
