<svg width="20" height="20" viewBox="0 0 20 20" fill="none" xmlns="http://www.w3.org/2000/svg">
<path fill-rule="evenodd" clip-rule="evenodd" d="M0.52 5.823C0 6.77 0 7.915 0 10.203V11.725C0 15.625 0 17.576 1.172 18.788C2.344 20 4.229 20 8 20H12C15.771 20 17.657 20 18.828 18.788C19.999 17.576 20 15.626 20 11.725V10.204C20 7.915 20 6.771 19.48 5.823C18.962 4.874 18.013 4.286 16.116 3.108L14.116 1.867C12.111 0.622 11.108 0 10 0C8.892 0 7.89 0.622 5.884 1.867L3.884 3.108C1.987 4.286 1.039 4.874 0.52 5.823ZM7.446 13.398C7.23135 13.231 6.94308 13.1932 6.69267 13.2994C6.44225 13.4055 6.26894 13.639 6.23973 13.9094C6.21053 14.1798 6.33002 14.4448 6.552 14.602C7.54768 15.3461 8.75702 15.7487 10 15.75C11.2426 15.7485 12.4516 15.3459 13.447 14.602C13.669 14.4448 13.7885 14.1798 13.7593 13.9094C13.7301 13.639 13.5567 13.4055 13.3063 13.2994C13.0559 13.1932 12.7677 13.231 12.553 13.398C11.8161 13.9498 10.9206 14.2486 10 14.25C9.07941 14.2486 8.18291 13.9498 7.446 13.398ZM7.446 13.398C7.23135 13.231 6.94308 13.1932 6.69267 13.2994C6.44225 13.4055 6.26894 13.639 6.23973 13.9094C6.21053 14.1798 6.33002 14.4448 6.552 14.602C7.54768 15.3461 8.75702 15.7487 10 15.75C11.2426 15.7485 12.4516 15.3459 13.447 14.602C13.669 14.4448 13.7885 14.1798 13.7593 13.9094C13.7301 13.639 13.5567 13.4055 13.3063 13.2994C13.0559 13.1932 12.7677 13.231 12.553 13.398C11.8161 13.9498 10.9206 14.2486 10 14.25C9.07941 14.2486 8.18291 13.9498 7.446 13.398Z" fill="#7C3AED"/>
</svg>
