<svg width="26" height="27" viewBox="0 0 26 27" fill="none" xmlns="http://www.w3.org/2000/svg">
<path d="M9.34 1.24559C10.3892 0.437942 11.676 0 13 0C14.324 0 15.6108 0.437942 16.66 1.24559L23.66 6.63159C24.3882 7.19219 24.9779 7.91258 25.3837 8.73719C25.7894 9.56179 26.0002 10.4686 26 11.3876V20.4316C26 22.0229 25.3679 23.549 24.2426 24.6742C23.1174 25.7995 21.5913 26.4316 20 26.4316H6C4.4087 26.4316 2.88258 25.7995 1.75736 24.6742C0.632141 23.549 2.1107e-07 22.0229 2.1107e-07 20.4316V11.3876C-0.000243535 10.4686 0.210626 9.56179 0.616341 8.73719C1.02206 7.91258 1.61177 7.19219 2.34 6.63159L9.34 1.24559ZM11 13.4316C9.62 13.4316 8.5 14.5516 8.5 15.9316V23.4316H17.5V15.9316C17.5 14.5516 16.38 13.4316 15 13.4316H11Z" fill="#00DF0B"/>
</svg>
