<svg width="27" height="27" viewBox="0 0 27 27" fill="none" xmlns="http://www.w3.org/2000/svg">
<path d="M17.0838 2.66519C16.5375 1.11938 15.0716 0 13.3259 0C11.5802 0 10.1277 1.11938 9.56802 2.66519H0V5.33037H3.41144L0.0932814 14.1921C0.0399777 14.3387 0.0133259 14.4986 0.0133259 14.6585C0.0133259 17.6036 2.39867 19.9889 5.3437 19.9889C8.28873 19.9889 10.6741 17.6036 10.6741 14.6585C10.6741 14.4986 10.6474 14.3387 10.5941 14.1921L7.27596 5.33037H9.59467C9.99445 6.46308 10.8873 7.34259 12.02 7.75569V23.9867H0V26.6519H26.6519V23.9867H14.6585V7.75569C15.7912 7.35591 16.6707 6.46308 17.0838 5.33037H19.4026L16.0844 14.1921C16.0311 14.3387 16.0044 14.4986 16.0044 14.6585C16.0044 17.6036 18.3898 19.9889 21.3348 19.9889C24.2798 19.9889 26.6652 17.6036 26.6652 14.6585C26.6652 14.4986 26.6385 14.3387 26.5852 14.1921L23.2671 5.33037H26.6785V2.66519H17.1105H17.0838ZM2.75847 14.6585L5.33037 7.79567L7.90228 14.6585H2.75847ZM18.7496 14.6585L21.3215 7.79567L23.8934 14.6585H18.7496ZM13.3259 5.33037C12.593 5.33037 11.9933 4.73071 11.9933 3.99778C11.9933 3.26485 12.593 2.66519 13.3259 2.66519C14.0589 2.66519 14.6585 3.26485 14.6585 3.99778C14.6585 4.73071 14.0589 5.33037 13.3259 5.33037Z" fill="#557DFF"/>
</svg>
