<svg width="20" height="20" viewBox="0 0 20 20" fill="none" xmlns="http://www.w3.org/2000/svg">
<path d="M1.66699 9.69601C1.69783 8.15986 1.71367 7.3922 2.22378 6.73539C2.32629 6.6045 2.44161 6.48415 2.56802 6.37615C3.19481 5.84604 4.02332 5.84604 5.6795 5.84604C6.2713 5.84604 6.56719 5.84604 6.84892 5.76935C6.90726 5.75268 6.96533 5.73407 7.02312 5.71351C7.29818 5.61265 7.54573 5.43845 8.04 5.09171C9.98874 3.72059 10.964 3.03545 11.7816 3.33301C11.9383 3.39052 12.09 3.47304 12.2259 3.57473C12.9327 4.104 12.9869 5.3376 13.0944 7.80312C13.1344 8.71664 13.1611 9.49847 13.1611 9.93273C13.1611 10.367 13.1344 11.1497 13.0944 12.0623C12.986 14.5279 12.9327 15.7615 12.2259 16.2907C12.0903 16.3924 11.9406 16.4738 11.7816 16.5325C10.9631 16.83 9.98958 16.1449 8.03917 14.7738C7.54573 14.427 7.29818 14.2528 7.02229 14.152C6.96519 14.1312 6.90737 14.1126 6.84892 14.0961C6.56719 14.0194 6.2713 14.0194 5.6795 14.0194C4.02332 14.0194 3.19565 14.0194 2.56802 13.4893C2.44165 13.3816 2.32634 13.2615 2.22378 13.1309C1.71367 12.4724 1.69867 11.7056 1.66699 10.1703C1.66377 10.0119 1.66377 9.85436 1.66699 9.69601Z" fill="#6B7280"/>
<path fill-rule="evenodd" clip-rule="evenodd" d="M16.1727 4.62397C16.2874 4.52044 16.4405 4.46995 16.5943 4.48486C16.7482 4.49977 16.8886 4.5787 16.9814 4.70234L16.5403 5.09504L16.9822 4.70317L16.9839 4.70484L16.9864 4.70818L16.9922 4.71568L17.0581 4.80906C17.0981 4.86853 17.1498 4.9533 17.2132 5.06336C17.3374 5.28347 17.4958 5.60696 17.6517 6.03968C17.9652 6.90762 18.2654 8.20828 18.2654 10C18.2654 11.7918 17.9652 13.0932 17.6517 13.9604C17.4958 14.3939 17.3374 14.7166 17.2132 14.9375C17.1453 15.057 17.0716 15.173 16.9922 15.2852L16.9864 15.2927L16.9839 15.2952L16.9831 15.2969C16.9831 15.2969 16.9822 15.2977 16.5403 14.905L16.9822 15.2977C16.8895 15.4216 16.7488 15.5007 16.5947 15.5156C16.4407 15.5305 16.2875 15.4799 16.1727 15.3761C15.9281 15.1512 15.8956 14.7769 16.0976 14.5131L16.1226 14.4789C16.1449 14.4456 16.1796 14.3881 16.2268 14.3064C16.3665 14.0549 16.4842 13.7918 16.5787 13.5201C16.8405 12.7939 17.1156 11.6417 17.1156 10C17.1156 8.35835 16.8405 7.20694 16.5787 6.4799C16.4842 6.20848 16.3665 5.94571 16.2268 5.69451C16.1867 5.62207 16.143 5.55167 16.0959 5.48357M14.7278 7.01184C15.0054 6.84759 15.3556 6.95348 15.5098 7.25029L15.0071 7.54794L15.5098 7.25029L15.5107 7.25196L15.5123 7.25446L15.5148 7.2603L15.5232 7.27531L15.5432 7.3195C15.5587 7.35451 15.5782 7.40176 15.6015 7.46123C15.6457 7.58213 15.7016 7.75305 15.7558 7.97816C15.8642 8.42839 15.9659 9.09289 15.9659 10C15.9659 10.908 15.8642 11.5725 15.7558 12.0227C15.7016 12.2478 15.6457 12.4187 15.6007 12.5388C15.5771 12.6018 15.5509 12.6638 15.5223 12.7247L15.5148 12.7397L15.5123 12.7456L15.5107 12.7481V12.7497C15.5107 12.7497 15.5098 12.7506 15.0071 12.4529L15.5107 12.7497C15.3564 13.0457 15.0054 13.1533 14.7278 12.989C14.4526 12.8256 14.3526 12.4571 14.501 12.1628L14.5043 12.1544L14.5335 12.0836C14.5602 12.0119 14.6002 11.8918 14.6419 11.7184C14.7253 11.3715 14.8153 10.8096 14.8153 10.0009C14.8153 9.19127 14.7253 8.62932 14.6419 8.28332C14.6061 8.13471 14.5601 7.98873 14.5043 7.84643L14.501 7.83809C14.3507 7.54556 14.4492 7.18667 14.7278 7.01184ZM14.7278 7.01184C15.0054 6.84759 15.3556 6.95348 15.5098 7.25029L15.0071 7.54794L15.5098 7.25029L15.5107 7.25196L15.5123 7.25446L15.5148 7.2603L15.5232 7.27531L15.5432 7.3195C15.5587 7.35451 15.5782 7.40176 15.6015 7.46123C15.6457 7.58213 15.7016 7.75305 15.7558 7.97816C15.8642 8.42839 15.9659 9.09289 15.9659 10C15.9659 10.908 15.8642 11.5725 15.7558 12.0227C15.7016 12.2478 15.6457 12.4187 15.6007 12.5388C15.5771 12.6018 15.5509 12.6638 15.5223 12.7247L15.5148 12.7397L15.5123 12.7456L15.5107 12.7481V12.7497C15.5107 12.7497 15.5098 12.7506 15.0071 12.4529L15.5107 12.7497C15.3564 13.0457 15.0054 13.1533 14.7278 12.989C14.4526 12.8256 14.3526 12.4571 14.501 12.1628L14.5043 12.1544L14.5335 12.0836C14.5602 12.0119 14.6002 11.8918 14.6419 11.7184C14.7253 11.3715 14.8153 10.8096 14.8153 10.0009C14.8153 9.19127 14.7253 8.62932 14.6419 8.28332C14.6061 8.13471 14.5601 7.98873 14.5043 7.84643L14.501 7.83809C14.3507 7.54556 14.4492 7.18667 14.7278 7.01184Z" fill="#6B7280"/>
</svg>
