<svg width="20" height="20" viewBox="0 0 20 20" fill="none" xmlns="http://www.w3.org/2000/svg">
<path fill-rule="evenodd" clip-rule="evenodd" d="M4.37481 8.37918V6.6667C4.37481 3.56012 6.89319 1.04175 9.99976 1.04175C13.1063 1.04175 15.6247 3.56012 15.6247 6.6667V8.37918C16.5539 8.44835 17.158 8.62334 17.6005 9.06584C18.333 9.7975 18.333 10.9767 18.333 13.3333C18.333 15.6899 18.333 16.8691 17.6005 17.6008C16.8689 18.3333 15.6897 18.3333 13.3331 18.3333H6.66646C4.30981 18.3333 3.13066 18.3333 2.399 17.6008C1.6665 16.8691 1.6665 15.6899 1.6665 13.3333C1.6665 10.9767 1.6665 9.7975 2.399 9.06584C2.84066 8.62334 3.44565 8.44835 4.37481 8.37918ZM5.6248 6.6667C5.6248 4.25047 7.58354 2.29174 9.99976 2.29174C12.416 2.29174 14.3747 4.25047 14.3747 6.6667V8.33668C14.0558 8.3339 13.7086 8.33279 13.3331 8.33335H6.66646C6.29035 8.33279 5.94313 8.3339 5.6248 8.33668V6.6667ZM11.6664 13.3333C11.6664 14.2538 10.9202 15 9.99976 15C9.07929 15 8.33311 14.2538 8.33311 13.3333C8.33311 12.4128 9.07929 11.6666 9.99976 11.6666C10.9202 11.6666 11.6664 12.4128 11.6664 13.3333ZM11.6664 13.3333C11.6664 14.2538 10.9202 15 9.99976 15C9.07929 15 8.33311 14.2538 8.33311 13.3333C8.33311 12.4128 9.07929 11.6666 9.99976 11.6666C10.9202 11.6666 11.6664 12.4128 11.6664 13.3333Z" fill="#6B7280"/>
</svg>
