<svg width="18" height="18" viewBox="0 0 18 18" fill="none" xmlns="http://www.w3.org/2000/svg">
<path fill-rule="evenodd" clip-rule="evenodd" d="M12.5785 8.67439C12.5785 8.50185 12.51 8.33637 12.3879 8.21436C12.2659 8.09235 12.1005 8.02381 11.9279 8.02381H2.40939L4.11046 6.56649C4.17539 6.5109 4.22874 6.44306 4.26745 6.36686C4.30617 6.29065 4.32949 6.20756 4.3361 6.12234C4.3427 6.03712 4.33246 5.95143 4.30595 5.87017C4.27944 5.78891 4.23718 5.71366 4.18159 5.64873C4.126 5.5838 4.05816 5.53045 3.98196 5.49174C3.90575 5.45302 3.82266 5.42969 3.73744 5.42309C3.65222 5.41648 3.56653 5.42673 3.48527 5.45324C3.40401 5.47975 3.32876 5.52201 3.26383 5.5776L0.227755 8.17995C0.156334 8.24102 0.0989927 8.31685 0.0596757 8.4022C0.0203588 8.48756 0 8.58042 0 8.67439C0 8.76837 0.0203588 8.86123 0.0596757 8.94658C0.0989927 9.03194 0.156334 9.10776 0.227755 9.16884L3.26383 11.7712C3.39496 11.8835 3.56533 11.939 3.73744 11.9257C3.90955 11.9124 4.06932 11.8312 4.18159 11.7001C4.29386 11.5689 4.34944 11.3986 4.3361 11.2264C4.32276 11.0543 4.24159 10.8946 4.11046 10.7823L2.41026 9.32498H11.9279C12.1005 9.32498 12.2659 9.25644 12.3879 9.13443C12.51 9.01242 12.5785 8.84694 12.5785 8.67439Z" fill="#6B7280"/>
<path d="M6.72363 5.2047C6.72363 5.81365 6.72363 6.11812 6.87023 6.33759C6.93337 6.43195 7.01442 6.513 7.10878 6.57613C7.32825 6.72273 7.63272 6.72273 8.24167 6.72273H11.9283C12.446 6.72273 12.9424 6.92836 13.3084 7.29439C13.6745 7.66042 13.8801 8.15686 13.8801 8.67449C13.8801 9.19213 13.6745 9.68857 13.3084 10.0546C12.9424 10.4206 12.446 10.6263 11.9283 10.6263H8.24167C7.63272 10.6263 7.32825 10.6263 7.10878 10.772C7.01434 10.8354 6.93328 10.9167 6.87023 11.0114C6.72363 11.2309 6.72363 11.5353 6.72363 12.1443C6.72363 14.5974 6.72363 15.8249 7.48612 16.5865C8.24774 17.349 9.47431 17.349 11.9275 17.349H12.7949C15.2498 17.349 16.4755 17.349 17.238 16.5865C18.0005 15.8249 18.0005 14.5974 18.0005 12.1443V5.2047C18.0005 2.75155 18.0005 1.52411 17.238 0.762488C16.4755 0.000867387 15.2489 0 12.7958 0H11.9283C9.47432 0 8.24774 -5.1704e-08 7.48612 0.762488C6.72363 1.52411 6.72363 2.75155 6.72363 5.2047Z" fill="#6B7280"/>
</svg>
