<svg width="142" height="32" viewBox="0 0 142 32" fill="none" xmlns="http://www.w3.org/2000/svg">
<path d="M18.7018 15.6992C18.3709 14.0662 18.1497 12.0868 18.2889 10.3981C18.3925 9.14092 18.6152 6.99296 19.6296 6.26615L19.4487 5.95687C19.7905 5.25945 21.1606 3.51046 21.9493 3.63727L22.0807 3.1749C22.7642 2.56561 24.8998 1.712 25.8153 1.78159C26.2544 2.0321 27.3632 2.0754 26.9704 3.00943C24.3354 7.19554 21.9987 11.6105 19.2106 15.6745C19.0528 15.7038 18.8534 15.7379 18.7018 15.6992Z" fill="url(#paint0_linear_65_1277)"/>
<path d="M14.0625 16.9364C15.6646 19.6039 17.3192 22.2637 18.8563 24.9777C19.2476 25.3194 19.0063 25.6163 18.5471 25.7509L18.6816 26.1282C17.5991 28.3009 15.4001 30.7906 12.98 28.689C11.6733 26.8612 10.6728 24.6297 9.57793 22.6581C9.59031 22.1075 9.91505 21.5709 10.5537 21.0467C11.3857 19.4354 12.4651 17.9694 13.7919 16.6472L14.0625 16.9364Z" fill="url(#paint1_linear_65_1277)"/>
<path d="M8.80474 8.27652L8.68876 8.71415C6.81452 9.57086 5.41502 10.5265 4.25058 12.2152L3.85625 12.1425C2.75521 10.1059 1.47634 8.10178 0.475817 6.01259C-0.0484137 4.91928 -0.400992 4.63938 0.873243 4.13371C3.34749 3.15174 6.04441 4.27753 7.63257 6.28012C8.1367 6.91569 8.39804 7.63477 8.80474 8.27807V8.27652Z" fill="url(#paint2_linear_65_1277)"/>
<path d="M11.7429 13.225C11.9238 13.6688 11.6872 13.9998 11.0331 14.2209C9.96144 14.5194 8.9702 14.8317 8.4738 15.942L7.49184 17.9848L7.10524 18.0189C6.0274 16.058 4.92327 14.1126 3.85779 12.1425C4.61244 11.5611 4.89852 10.7461 5.63925 10.1353C6.54853 9.38684 7.81813 8.92601 8.80628 8.27652C9.83773 9.90179 10.7563 11.6075 11.7444 13.225H11.7429Z" fill="url(#paint3_linear_65_1277)"/>
<path d="M11.7429 13.225C12.4852 14.4389 13.3109 15.6853 14.0625 16.9364C13.7192 16.8606 13.7347 17.1266 13.6017 17.3183C12.6243 18.7333 11.364 19.5034 10.8212 21.1952L9.57793 22.6581C8.72587 21.1271 7.94648 19.5513 7.10369 18.0189C7.94803 16.7493 8.0903 15.0931 9.57793 14.3848C10.345 14.0199 11.2651 14.0848 11.7429 13.225Z" fill="url(#paint4_linear_65_1277)"/>
<path d="M27.0522 24.9777C25.7316 27.2895 25.1997 29.4576 22.6713 30.8803C19.2738 32.7916 15.196 31.7896 12.98 28.689C16.1192 30.0932 17.2388 28.1308 18.6243 25.8282L18.7898 25.5174C21.2007 25.2823 23.562 24.8973 25.9064 24.3916C26.3687 24.3514 26.9873 24.4596 27.0507 24.9792L27.0522 24.9777Z" fill="url(#paint5_linear_65_1277)"/>
<path d="M27.0507 24.9777C27.4744 24.2091 31.7378 16.4678 32.1554 15.6992H32.1538C31.5368 14.1559 30.9414 13.3874 29.4847 12.4642C28.8631 12.0698 27.6894 11.3508 27.0507 11.5239C24.796 15.2106 18.779 25.5189 18.779 25.5189L27.0507 24.9777Z" fill="url(#paint6_linear_65_1277)"/>
<path d="M34.475 11.524C34.1564 11.7435 33.8332 11.592 33.5038 11.0693C32.777 9.67291 31.5925 9.17343 30.1884 8.61827C29.5574 8.38785 29.2853 8.06775 29.3719 7.65795C30.9724 5.24711 32.5002 3.35277 35.7755 3.80586C36.258 3.87236 37.741 4.50793 37.8523 4.98422C37.9807 5.52546 34.9636 10.6193 34.475 11.5255V11.524Z" fill="url(#paint7_linear_65_1277)"/>
<path d="M34.475 11.524C33.7188 12.9235 32.9131 14.3044 32.1554 15.6992C31.3992 15.5229 31.4811 14.8333 31.144 14.3137C30.2193 12.891 28.4332 12.3513 27.0522 11.524C27.8347 10.2451 28.5414 8.90899 29.3719 7.65795C30.2734 8.62136 31.7889 8.72652 32.7647 9.60023C33.3554 10.1291 33.677 11.0972 34.475 11.524Z" fill="url(#paint8_linear_65_1277)"/>
<path d="M25.8152 1.78173C24.5765 2.34462 23.0564 2.83328 21.9492 3.63741C20.4105 3.93742 18.8316 4.16474 17.2141 4.31629L14.5187 5.19773C13.5692 5.59361 12.7976 5.53794 12.2068 5.02918C11.9764 4.64258 10.662 3.05287 10.8831 2.70957C11.0563 2.4405 12.7852 1.47245 13.1857 1.29152C17.3084 -0.570349 21.9306 -0.429624 25.8152 1.78173Z" fill="url(#paint9_linear_65_1277)"/>
<path d="M21.9492 3.63741C21.2193 4.16628 20.0517 5.46061 19.6296 6.26629L19.1827 6.67299C17.678 7.19104 16.2801 7.95341 14.9888 8.96321L14.5264 8.89517C13.7594 7.60856 12.9723 6.31578 12.2068 5.02918C13.9079 5.49928 15.5672 4.30545 17.2759 3.98998C18.128 3.83225 18.8966 3.88019 19.6914 3.77658C20.4863 3.67297 21.2765 3.02503 21.9507 3.63895L21.9492 3.63741Z" fill="url(#paint10_linear_65_1277)"/>
<path d="M19.6296 6.26629C18.977 7.51114 18.7528 9.65446 18.7017 11.0601C18.6476 12.5679 18.9708 14.2457 18.7017 15.6993C18.2239 15.5818 15.0429 9.76116 14.5264 8.89517C16.1332 7.86372 17.6765 6.57247 19.6296 6.26629Z" fill="url(#paint11_linear_65_1277)"/>
<path d="M54.5798 11.2928L51.5177 19.9258H48.8859L45.8238 11.2928H48.062L50.2018 17.8106L52.3539 11.2928H54.5798ZM63.8334 13.0637V19.9258H61.7305V18.9912C61.5174 19.2945 61.2263 19.5405 60.8574 19.729C60.4966 19.9094 60.0949 19.9996 59.6522 19.9996C59.1275 19.9996 58.6643 19.8848 58.2626 19.6552C57.8608 19.4175 57.5493 19.0772 57.3279 18.6345C57.1066 18.1918 56.9959 17.6712 56.9959 17.0727V13.0637H59.0865V16.7899C59.0865 17.249 59.2054 17.6056 59.4431 17.8598C59.6809 18.1139 60.0006 18.241 60.4024 18.241C60.8123 18.241 61.1361 18.1139 61.3739 17.8598C61.6116 17.6056 61.7305 17.249 61.7305 16.7899V13.0637H63.8334ZM71.0009 19.9258L69.685 18.0196L68.5782 19.9258H66.3032L68.5659 16.4209L66.2417 13.0637H68.6028L69.9187 14.9575L71.0255 13.0637H73.3005L71.0009 16.5193L73.362 19.9258H71.0009ZM82.2396 16.384C82.2396 16.5808 82.2273 16.7858 82.2027 16.9989H77.4435C77.4763 17.4252 77.6116 17.7532 77.8494 17.9827C78.0953 18.2041 78.3946 18.3148 78.7471 18.3148C79.2718 18.3148 79.6366 18.0934 79.8416 17.6507H82.0798C81.965 18.1016 81.7559 18.5074 81.4526 18.8682C81.1574 19.2289 80.7844 19.5118 80.3335 19.7167C79.8826 19.9217 79.3784 20.0242 78.8209 20.0242C78.1486 20.0242 77.5501 19.8807 77.0254 19.5937C76.5007 19.3068 76.0908 18.8969 75.7956 18.364C75.5005 17.8311 75.3529 17.208 75.3529 16.4947C75.3529 15.7815 75.4964 15.1584 75.7833 14.6255C76.0785 14.0926 76.4884 13.6826 77.0131 13.3957C77.5378 13.1088 78.1404 12.9653 78.8209 12.9653C79.485 12.9653 80.0752 13.1047 80.5917 13.3834C81.1082 13.6621 81.51 14.0598 81.7969 14.5763C82.0921 15.0928 82.2396 15.6954 82.2396 16.384ZM80.0875 15.8306C80.0875 15.4699 79.9646 15.183 79.7186 14.9698C79.4727 14.7566 79.1652 14.6501 78.7963 14.6501C78.4437 14.6501 78.1445 14.7525 77.8985 14.9575C77.6608 15.1625 77.5132 15.4535 77.4558 15.8306H80.0875ZM89.1289 12.9899C89.9324 12.9899 90.5719 13.2522 91.0474 13.7769C91.5311 14.2934 91.773 15.0067 91.773 15.9167V19.9258H89.6823V16.1996C89.6823 15.7405 89.5635 15.3838 89.3257 15.1297C89.088 14.8755 88.7682 14.7484 88.3665 14.7484C87.9648 14.7484 87.645 14.8755 87.4073 15.1297C87.1695 15.3838 87.0506 15.7405 87.0506 16.1996V19.9258H84.9477V13.0637H87.0506V13.9737C87.2638 13.6703 87.5507 13.4326 87.9115 13.2604C88.2722 13.0801 88.678 12.9899 89.1289 12.9899ZM96.9359 14.0352C97.1408 13.7154 97.4237 13.4572 97.7844 13.2604C98.1452 13.0637 98.5674 12.9653 99.0511 12.9653C99.6168 12.9653 100.129 13.1088 100.588 13.3957C101.047 13.6826 101.408 14.0926 101.67 14.6255C101.941 15.1584 102.076 15.7774 102.076 16.4824C102.076 17.1875 101.941 17.8106 101.67 18.3517C101.408 18.8846 101.047 19.2986 100.588 19.5937C100.129 19.8807 99.6168 20.0242 99.0511 20.0242C98.5756 20.0242 98.1534 19.9258 97.7844 19.729C97.4237 19.5323 97.1408 19.2781 96.9359 18.9666V23.197H94.833V13.0637H96.9359V14.0352ZM99.9365 16.4824C99.9365 15.9577 99.7889 15.5478 99.4938 15.2527C99.2069 14.9493 98.8502 14.7976 98.4239 14.7976C98.0058 14.7976 97.6491 14.9493 97.354 15.2527C97.0671 15.556 96.9236 15.97 96.9236 16.4947C96.9236 17.0194 97.0671 17.4334 97.354 17.7368C97.6491 18.0401 98.0058 18.1918 98.4239 18.1918C98.842 18.1918 99.1987 18.0401 99.4938 17.7368C99.7889 17.4252 99.9365 17.0071 99.9365 16.4824ZM107.902 20.0242C107.23 20.0242 106.623 19.8807 106.082 19.5937C105.549 19.3068 105.127 18.8969 104.815 18.364C104.512 17.8311 104.36 17.208 104.36 16.4947C104.36 15.7897 104.516 15.1707 104.827 14.6378C105.139 14.0967 105.565 13.6826 106.106 13.3957C106.648 13.1088 107.254 12.9653 107.926 12.9653C108.599 12.9653 109.205 13.1088 109.747 13.3957C110.288 13.6826 110.714 14.0967 111.026 14.6378C111.337 15.1707 111.493 15.7897 111.493 16.4947C111.493 17.1998 111.333 17.8229 111.013 18.364C110.702 18.8969 110.271 19.3068 109.722 19.5937C109.181 19.8807 108.574 20.0242 107.902 20.0242ZM107.902 18.2041C108.304 18.2041 108.644 18.0565 108.923 17.7614C109.21 17.4662 109.353 17.044 109.353 16.4947C109.353 15.9454 109.214 15.5232 108.935 15.2281C108.664 14.9329 108.328 14.7853 107.926 14.7853C107.517 14.7853 107.176 14.9329 106.906 15.2281C106.635 15.515 106.5 15.9372 106.5 16.4947C106.5 17.044 106.631 17.4662 106.893 17.7614C107.164 18.0565 107.5 18.2041 107.902 18.2041ZM113.789 16.4824C113.789 15.7774 113.92 15.1584 114.183 14.6255C114.453 14.0926 114.818 13.6826 115.277 13.3957C115.736 13.1088 116.249 12.9653 116.814 12.9653C117.298 12.9653 117.72 13.0637 118.081 13.2604C118.45 13.4572 118.733 13.7154 118.929 14.0352V13.0637H121.032V19.9258H118.929V18.9543C118.725 19.274 118.438 19.5323 118.069 19.729C117.708 19.9258 117.286 20.0242 116.802 20.0242C116.244 20.0242 115.736 19.8807 115.277 19.5937C114.818 19.2986 114.453 18.8846 114.183 18.3517C113.92 17.8106 113.789 17.1875 113.789 16.4824ZM118.929 16.4947C118.929 15.97 118.782 15.556 118.487 15.2527C118.2 14.9493 117.847 14.7976 117.429 14.7976C117.011 14.7976 116.654 14.9493 116.359 15.2527C116.072 15.5478 115.929 15.9577 115.929 16.4824C115.929 17.0071 116.072 17.4252 116.359 17.7368C116.654 18.0401 117.011 18.1918 117.429 18.1918C117.847 18.1918 118.2 18.0401 118.487 17.7368C118.782 17.4334 118.929 17.0194 118.929 16.4947ZM116.421 12.3012C116.167 12.3012 115.953 12.2151 115.781 12.0429C115.609 11.8708 115.523 11.6576 115.523 11.4035C115.523 11.1493 115.609 10.9362 115.781 10.764C115.953 10.5836 116.167 10.4934 116.421 10.4934C116.683 10.4934 116.9 10.5795 117.073 10.7517C117.245 10.9239 117.331 11.1411 117.331 11.4035C117.331 11.6576 117.241 11.8708 117.06 12.0429C116.888 12.2151 116.675 12.3012 116.421 12.3012ZM118.88 12.3012C118.626 12.3012 118.413 12.2151 118.241 12.0429C118.069 11.8708 117.983 11.6576 117.983 11.4035C117.983 11.1493 118.069 10.9362 118.241 10.764C118.413 10.5836 118.626 10.4934 118.88 10.4934C119.143 10.4934 119.36 10.5795 119.532 10.7517C119.704 10.9239 119.79 11.1411 119.79 11.4035C119.79 11.6576 119.7 11.8708 119.52 12.0429C119.348 12.2151 119.134 12.3012 118.88 12.3012ZM128.334 12.9899C129.137 12.9899 129.777 13.2522 130.252 13.7769C130.736 14.2934 130.978 15.0067 130.978 15.9167V19.9258H128.887V16.1996C128.887 15.7405 128.768 15.3838 128.53 15.1297C128.293 14.8755 127.973 14.7484 127.571 14.7484C127.169 14.7484 126.85 14.8755 126.612 15.1297C126.374 15.3838 126.255 15.7405 126.255 16.1996V19.9258H124.152V13.0637H126.255V13.9737C126.469 13.6703 126.755 13.4326 127.116 13.2604C127.477 13.0801 127.883 12.9899 128.334 12.9899ZM136.645 12.9653C137.129 12.9653 137.551 13.0637 137.911 13.2604C138.28 13.4572 138.563 13.7154 138.76 14.0352V13.0637H140.863V19.9135C140.863 20.5448 140.736 21.1146 140.482 21.6229C140.236 22.1394 139.855 22.5493 139.338 22.8526C138.83 23.156 138.194 23.3077 137.432 23.3077C136.415 23.3077 135.591 23.0658 134.96 22.5821C134.329 22.1066 133.968 21.4589 133.878 20.639H135.956C136.022 20.9014 136.177 21.1064 136.423 21.2539C136.669 21.4097 136.973 21.4876 137.333 21.4876C137.768 21.4876 138.112 21.3605 138.366 21.1064C138.629 20.8604 138.76 20.4628 138.76 19.9135V18.942C138.555 19.2617 138.272 19.5241 137.911 19.729C137.551 19.9258 137.129 20.0242 136.645 20.0242C136.079 20.0242 135.567 19.8807 135.108 19.5937C134.648 19.2986 134.284 18.8846 134.013 18.3517C133.751 17.8106 133.62 17.1875 133.62 16.4824C133.62 15.7774 133.751 15.1584 134.013 14.6255C134.284 14.0926 134.648 13.6826 135.108 13.3957C135.567 13.1088 136.079 12.9653 136.645 12.9653ZM138.76 16.4947C138.76 15.97 138.612 15.556 138.317 15.2527C138.03 14.9493 137.678 14.7976 137.26 14.7976C136.842 14.7976 136.485 14.9493 136.19 15.2527C135.903 15.5478 135.759 15.9577 135.759 16.4824C135.759 17.0071 135.903 17.4252 136.19 17.7368C136.485 18.0401 136.842 18.1918 137.26 18.1918C137.678 18.1918 138.03 18.0401 138.317 17.7368C138.612 17.4334 138.76 17.0194 138.76 16.4947Z" fill="#7D39EB"/>
<defs>
<linearGradient id="paint0_linear_65_1277" x1="25.7227" y1="2.72249" x2="18.8949" y2="10.9397" gradientUnits="userSpaceOnUse">
<stop stop-color="#7D39EB"/>
<stop offset="0.432692" stop-color="#612CB7"/>
<stop offset="1" stop-color="#472085"/>
</linearGradient>
<linearGradient id="paint1_linear_65_1277" x1="2.7062" y1="6.1082" x2="15.0774" y2="25.9022" gradientUnits="userSpaceOnUse">
<stop stop-color="#C6FF33"/>
<stop offset="0.5" stop-color="#9ECC29"/>
<stop offset="1" stop-color="#77991F"/>
</linearGradient>
<linearGradient id="paint2_linear_65_1277" x1="2.7062" y1="6.1082" x2="15.0774" y2="25.9022" gradientUnits="userSpaceOnUse">
<stop stop-color="#C6FF33"/>
<stop offset="0.5" stop-color="#9ECC29"/>
<stop offset="1" stop-color="#77991F"/>
</linearGradient>
<linearGradient id="paint3_linear_65_1277" x1="2.7062" y1="6.1082" x2="15.0774" y2="25.9022" gradientUnits="userSpaceOnUse">
<stop stop-color="#C6FF33"/>
<stop offset="0.5" stop-color="#9ECC29"/>
<stop offset="1" stop-color="#77991F"/>
</linearGradient>
<linearGradient id="paint4_linear_65_1277" x1="2.7062" y1="6.1082" x2="15.0774" y2="25.9022" gradientUnits="userSpaceOnUse">
<stop stop-color="#C6FF33"/>
<stop offset="0.5" stop-color="#9ECC29"/>
<stop offset="1" stop-color="#77991F"/>
</linearGradient>
<linearGradient id="paint5_linear_65_1277" x1="34.0981" y1="5.64427" x2="21.8042" y2="26.3661" gradientUnits="userSpaceOnUse">
<stop stop-color="#7D39EB"/>
<stop offset="0.432692" stop-color="#612CB7"/>
<stop offset="1" stop-color="#472085"/>
</linearGradient>
<linearGradient id="paint6_linear_65_1277" x1="34.0981" y1="5.64427" x2="21.8042" y2="26.3661" gradientUnits="userSpaceOnUse">
<stop stop-color="#7D39EB"/>
<stop offset="0.432692" stop-color="#612CB7"/>
<stop offset="1" stop-color="#472085"/>
</linearGradient>
<linearGradient id="paint7_linear_65_1277" x1="34.0981" y1="5.64427" x2="21.8042" y2="26.3661" gradientUnits="userSpaceOnUse">
<stop stop-color="#7D39EB"/>
<stop offset="0.432692" stop-color="#612CB7"/>
<stop offset="1" stop-color="#472085"/>
</linearGradient>
<linearGradient id="paint8_linear_65_1277" x1="34.0981" y1="5.64427" x2="21.8042" y2="26.3661" gradientUnits="userSpaceOnUse">
<stop stop-color="#7D39EB"/>
<stop offset="0.432692" stop-color="#612CB7"/>
<stop offset="1" stop-color="#472085"/>
</linearGradient>
<linearGradient id="paint9_linear_65_1277" x1="15.0774" y1="0.541241" x2="14.5352" y2="12.4021" gradientUnits="userSpaceOnUse">
<stop stop-color="#C6FF33"/>
<stop offset="0.5" stop-color="#9ECC29"/>
<stop offset="1" stop-color="#77991F"/>
</linearGradient>
<linearGradient id="paint10_linear_65_1277" x1="15.0774" y1="0.541241" x2="14.5352" y2="12.4021" gradientUnits="userSpaceOnUse">
<stop stop-color="#C6FF33"/>
<stop offset="0.5" stop-color="#9ECC29"/>
<stop offset="1" stop-color="#77991F"/>
</linearGradient>
<linearGradient id="paint11_linear_65_1277" x1="15.0774" y1="0.541241" x2="14.5352" y2="12.4021" gradientUnits="userSpaceOnUse">
<stop stop-color="#C6FF33"/>
<stop offset="0.5" stop-color="#9ECC29"/>
<stop offset="1" stop-color="#77991F"/>
</linearGradient>
</defs>
</svg>
