<svg width="20" height="20" viewBox="0 0 20 20" fill="none" xmlns="http://www.w3.org/2000/svg">
<path fill-rule="evenodd" clip-rule="evenodd" d="M4.37484 8.37901V6.66651C4.37484 3.5599 6.89324 1.0415 9.99984 1.0415C13.1064 1.0415 15.6248 3.5599 15.6248 6.66651V8.37901C16.554 8.44817 17.1582 8.62317 17.6007 9.06567C18.3332 9.79734 18.3332 10.9765 18.3332 13.3332C18.3332 15.6898 18.3332 16.869 17.6007 17.6007C16.869 18.3332 15.6898 18.3332 13.3332 18.3332H6.66651C4.30984 18.3332 3.13067 18.3332 2.399 17.6007C1.6665 16.869 1.6665 15.6898 1.6665 13.3332C1.6665 10.9765 1.6665 9.79734 2.399 9.06567C2.84067 8.62317 3.44567 8.44817 4.37484 8.37901ZM5.62484 6.66651C5.62484 4.25026 7.58359 2.2915 9.99984 2.2915C12.4161 2.2915 14.3748 4.25026 14.3748 6.66651V8.33651C14.056 8.33373 13.7087 8.33262 13.3332 8.33317H6.66651C6.29039 8.33262 5.94317 8.33373 5.62484 8.33651V6.66651ZM6.66651 14.1665C7.12674 14.1665 7.49984 13.7934 7.49984 13.3332C7.49984 12.8729 7.12674 12.4998 6.66651 12.4998C6.20627 12.4998 5.83317 12.8729 5.83317 13.3332C5.83317 13.7934 6.20627 14.1665 6.66651 14.1665ZM9.99984 14.1665C10.4601 14.1665 10.8332 13.7934 10.8332 13.3332C10.8332 12.8729 10.4601 12.4998 9.99984 12.4998C9.5396 12.4998 9.16651 12.8729 9.16651 13.3332C9.16651 13.7934 9.5396 14.1665 9.99984 14.1665ZM14.1665 13.3332C14.1665 13.7934 13.7934 14.1665 13.3332 14.1665C12.8729 14.1665 12.4998 13.7934 12.4998 13.3332C12.4998 12.8729 12.8729 12.4998 13.3332 12.4998C13.7934 12.4998 14.1665 12.8729 14.1665 13.3332ZM14.1665 13.3332C14.1665 13.7934 13.7934 14.1665 13.3332 14.1665C12.8729 14.1665 12.4998 13.7934 12.4998 13.3332C12.4998 12.8729 12.8729 12.4998 13.3332 12.4998C13.7934 12.4998 14.1665 12.8729 14.1665 13.3332Z" fill="#6B7280"/>
</svg>
