<svg width="20" height="20" viewBox="0 0 20 20" fill="none" xmlns="http://www.w3.org/2000/svg">
<path d="M6.58508 16.8685C7.31983 17.7976 8.44063 18.3377 9.62514 18.3335C10.8097 18.3377 11.9304 17.7976 12.6652 16.8685C10.6477 17.1415 8.60259 17.1415 6.58508 16.8685Z" fill="#6B7280"/>
<path d="M15.2502 7.49995V8.08663C15.2502 8.79081 15.4503 9.47916 15.8269 10.065L16.7503 11.5009C17.5928 12.8126 16.9494 14.5951 15.4836 15.0093C11.6533 16.094 7.59701 16.094 3.76669 15.0093C2.30083 14.5951 1.65748 12.8126 2.5 11.5009L3.42335 10.065C3.80104 9.47432 4.00146 8.78774 4.00086 8.08663V7.49995C4.00086 4.27822 6.51925 1.6665 9.62514 1.6665C12.731 1.6665 15.2502 4.27822 15.2502 7.49995Z" fill="#6B7280"/>
</svg>
