<svg width="27" height="27" viewBox="0 0 27 27" fill="none" xmlns="http://www.w3.org/2000/svg">
<path d="M21.375 7.875V4.5C21.375 4.20163 21.2565 3.91548 21.0455 3.7045C20.8345 3.49353 20.5484 3.375 20.25 3.375H5.625C5.02826 3.375 4.45597 3.61205 4.03401 4.03401C3.61205 4.45597 3.375 5.02826 3.375 5.625C3.375 6.22174 3.61205 6.79403 4.03401 7.21599C4.45597 7.63795 5.02826 7.875 5.625 7.875H22.5C22.7984 7.875 23.0845 7.99353 23.2955 8.20451C23.5065 8.41548 23.625 8.70163 23.625 9V13.5M23.625 13.5H20.25C19.6533 13.5 19.081 13.7371 18.659 14.159C18.2371 14.581 18 15.1533 18 15.75C18 16.3467 18.2371 16.919 18.659 17.341C19.081 17.7629 19.6533 18 20.25 18H23.625C23.9234 18 24.2095 17.8815 24.4205 17.6705C24.6315 17.4595 24.75 17.1734 24.75 16.875V14.625C24.75 14.3266 24.6315 14.0405 24.4205 13.8295C24.2095 13.6185 23.9234 13.5 23.625 13.5Z" stroke="#C70202" stroke-width="2.25" stroke-linecap="round" stroke-linejoin="round"/>
<path d="M3.375 5.625V21.375C3.375 21.9717 3.61205 22.544 4.03401 22.966C4.45597 23.3879 5.02826 23.625 5.625 23.625H22.5C22.7984 23.625 23.0845 23.5065 23.2955 23.2955C23.5065 23.0845 23.625 22.7984 23.625 22.5V18" stroke="#C70202" stroke-width="2.25" stroke-linecap="round" stroke-linejoin="round"/>
</svg>
