<svg width="20" height="20" viewBox="0 0 20 20" fill="none" xmlns="http://www.w3.org/2000/svg">
<path d="M2.5 5.3215C2.5 4.91817 2.7875 4.59067 3.1425 4.59067H5.36333C5.80417 4.57734 6.19333 4.25817 6.34333 3.7865L6.36833 3.70317L6.46417 3.37734C6.5225 3.17734 6.57333 3.00234 6.645 2.8465C6.92667 2.23067 7.44833 1.80317 8.05083 1.694C8.20417 1.6665 8.36583 1.6665 8.55083 1.6665H11.4492C11.635 1.6665 11.7967 1.6665 11.9492 1.694C12.5517 1.80317 13.0742 2.23067 13.355 2.8465C13.4267 3.00234 13.4775 3.1765 13.5367 3.37734L13.6317 3.70317L13.6567 3.7865C13.8067 4.25817 14.2733 4.57817 14.715 4.59067H16.8567C17.2125 4.59067 17.5 4.91817 17.5 5.3215C17.5 5.72484 17.2125 6.05234 16.8575 6.05234H3.14167C2.7875 6.05234 2.5 5.72484 2.5 5.3215Z" fill="#FB2C36"/>
<path fill-rule="evenodd" clip-rule="evenodd" d="M9.6065 18.3335H10.2798C12.599 18.3335 13.7582 18.3335 14.5132 17.5952C15.2665 16.8568 15.3432 15.646 15.4973 13.2243L15.7198 9.73434C15.8032 8.42017 15.8448 7.76267 15.4673 7.34684C15.089 6.93018 14.4507 6.93018 13.1732 6.93018H6.71317C5.43567 6.93018 4.7965 6.93018 4.419 7.34684C4.0415 7.76351 4.08234 8.42017 4.1665 9.73434L4.389 13.2243C4.54317 15.646 4.61984 16.8577 5.374 17.5952C6.12817 18.3335 7.28733 18.3335 9.6065 18.3335ZM8.4815 10.1577C8.44817 9.79601 8.1415 9.53267 7.79817 9.56851C7.454 9.60434 7.204 9.92684 7.23817 10.2885L7.65483 14.6743C7.68817 15.036 7.99483 15.2993 8.33817 15.2635C8.68233 15.2277 8.93233 14.9052 8.89817 14.5435L8.4815 10.1577ZM12.089 9.56851C12.4323 9.60434 12.6832 9.92684 12.6482 10.2885L12.2315 14.6743C12.1982 15.036 11.8907 15.2993 11.5482 15.2635C11.204 15.2277 10.954 14.9052 10.9882 14.5435L11.4048 10.1577C11.4382 9.79601 11.7457 9.53267 12.0882 9.56851M12.089 9.56851C12.4323 9.60434 12.6832 9.92684 12.6482 10.2885L12.2315 14.6743C12.1982 15.036 11.8907 15.2993 11.5482 15.2635C11.204 15.2277 10.954 14.9052 10.9882 14.5435L11.4048 10.1577C11.4382 9.79601 11.7457 9.53267 12.0882 9.56851" fill="#FB2C36"/>
</svg>
