<svg width="18" height="18" viewBox="0 0 18 18" fill="none" xmlns="http://www.w3.org/2000/svg">
<path d="M0.888672 8.88892H5.33312M0.888672 8.88892C0.888672 11.0106 1.73153 13.0455 3.23182 14.5458C4.73211 16.0461 6.76694 16.8889 8.88867 16.8889M0.888672 8.88892C0.888672 6.76718 1.73153 4.73235 3.23182 3.23206C4.73211 1.73177 6.76694 0.888916 8.88867 0.888916M5.33312 8.88892H12.4442M5.33312 8.88892C5.33312 13.3067 6.92423 16.8889 8.88867 16.8889M5.33312 8.88892C5.33312 4.47114 6.92423 0.888916 8.88867 0.888916M8.88867 16.8889C10.8531 16.8889 12.4442 13.3067 12.4442 8.88892M8.88867 16.8889C11.0104 16.8889 13.0452 16.0461 14.5455 14.5458C16.0458 13.0455 16.8887 11.0106 16.8887 8.88892M8.88867 0.888916C10.8531 0.888916 12.4442 4.47114 12.4442 8.88892M8.88867 0.888916C11.0104 0.888916 13.0452 1.73177 14.5455 3.23206C16.0458 4.73235 16.8887 6.76718 16.8887 8.88892M12.4442 8.88892H16.8887" stroke="#6B7280" stroke-width="1.77778" stroke-linecap="round" stroke-linejoin="round"/>
</svg>
