<svg width="10" height="15" viewBox="0 0 10 15" fill="none" xmlns="http://www.w3.org/2000/svg">
<path d="M4.66675 5.3335V7.3335L6.00008 8.00016M8.66675 7.3335C8.66675 8.39436 8.24532 9.41178 7.49518 10.1619C6.74503 10.9121 5.72761 11.3335 4.66675 11.3335C3.60588 11.3335 2.58847 10.9121 1.83832 10.1619C1.08818 9.41178 0.666748 8.39436 0.666748 7.3335C0.666748 6.27263 1.08818 5.25521 1.83832 4.50507C2.58847 3.75492 3.60588 3.3335 4.66675 3.3335C5.72761 3.3335 6.74503 3.75492 7.49518 4.50507C8.24532 5.25521 8.66675 6.27263 8.66675 7.3335Z" stroke="#6B7280" stroke-width="1.33333" stroke-linecap="round" stroke-linejoin="round"/>
<path d="M6.66675 3.66675V1.33341C6.66675 1.1566 6.59651 0.987034 6.47149 0.86201C6.34646 0.736986 6.17689 0.666748 6.00008 0.666748H3.33341C3.1566 0.666748 2.98703 0.736986 2.86201 0.86201C2.73699 0.987034 2.66675 1.1566 2.66675 1.33341V3.66675M6.66675 11.0001V13.3334C6.66675 13.5102 6.59651 13.6798 6.47149 13.8048C6.34646 13.9298 6.17689 14.0001 6.00008 14.0001H3.33341C3.1566 14.0001 2.98703 13.9298 2.86201 13.8048C2.73699 13.6798 2.66675 13.5102 2.66675 13.3334V11.0001" stroke="#6B7280" stroke-width="1.33333" stroke-linecap="round" stroke-linejoin="round"/>
</svg>
