<svg width="20" height="26" viewBox="0 0 20 26" fill="none" xmlns="http://www.w3.org/2000/svg">
<path d="M20 0H0V2.5L7.2625 7.95C5.05842 8.67678 3.2331 10.249 2.1877 12.321C1.14231 14.393 0.962395 16.7954 1.6875 19C2.04624 20.0921 2.61678 21.1028 3.36648 21.9742C4.11618 22.8456 5.03033 23.5607 6.05664 24.0785C7.08294 24.5963 8.20127 24.9067 9.34764 24.9919C10.494 25.0771 11.6459 24.9354 12.7375 24.575C14.4881 23.9996 16.0124 22.8862 17.0929 21.3936C18.1735 19.9009 18.7553 18.1052 18.7553 16.2625C18.7553 14.4198 18.1735 12.6241 17.0929 11.1314C16.0124 9.63878 14.4881 8.52539 12.7375 7.95L20 2.5V0ZM13.675 21.875L10 19.725L6.325 21.875L7.3 17.7125L4.0625 14.9125L8.325 14.55L10 10.625L11.675 14.55L15.9375 14.9125L12.7 17.7125L13.675 21.875Z" fill="#7D39EB"/>
</svg>
